<?xml version="1.0" encoding="UTF-8"?>
<svg id="Ebene_2" data-name="Ebene 2" xmlns="http://www.w3.org/2000/svg" viewBox="0 0 243.9 57.42">
  <defs>
    <style>
      .cls-1 {
        fill: #f3f3f3;
      }

      .cls-2 {
        fill: #089488;
      }
    </style>
  </defs>
  <g id="Ebene_1-2" data-name="Ebene 1">
    <g>
      <path class="cls-1" d="M0,13.08h5.46v4.5c1.28-1.64,2.89-2.92,4.83-3.84,1.94-.92,4.11-1.38,6.51-1.38,3,0,5.72.74,8.16,2.22,2.44,1.48,4.36,3.51,5.76,6.09,1.4,2.58,2.1,5.45,2.1,8.61s-.7,6.02-2.1,8.58c-1.4,2.56-3.32,4.58-5.76,6.06-2.44,1.48-5.18,2.22-8.22,2.22-2.32,0-4.45-.45-6.39-1.35-1.94-.9-3.53-2.19-4.77-3.87v16.5H0V13.08ZM6.99,35.13c.94,1.74,2.23,3.11,3.87,4.11,1.64,1,3.46,1.5,5.46,1.5s3.81-.5,5.43-1.5c1.62-1,2.88-2.37,3.78-4.11.9-1.74,1.35-3.69,1.35-5.85s-.46-4.12-1.38-5.88c-.92-1.76-2.18-3.14-3.78-4.14-1.6-1-3.4-1.5-5.4-1.5s-3.82.5-5.46,1.5c-1.64,1-2.93,2.38-3.87,4.14-.94,1.76-1.41,3.72-1.41,5.88s.47,4.11,1.41,5.85Z"/>
      <path class="cls-1" d="M39.84,2.59c.64-.64,1.48-.96,2.52-.96s1.88.32,2.52.96c.64.64.96,1.48.96,2.52s-.32,1.88-.96,2.52c-.64.64-1.48.96-2.52.96s-1.88-.32-2.52-.96c-.64-.64-.96-1.48-.96-2.52s.32-1.88.96-2.52ZM39.54,18.42h5.58v27h-5.58v-27Z"/>
      <path class="cls-1" d="M53.16,13.08h5.46v4.02c.92-1.52,2.17-2.69,3.75-3.51,1.58-.82,3.33-1.23,5.25-1.23,2.2,0,4.21.53,6.03,1.59,1.82,1.06,3.21,2.49,4.17,4.29,1.04-1.88,2.45-3.33,4.23-4.35,1.78-1.02,3.75-1.53,5.91-1.53s4.22.53,6.06,1.59c1.84,1.06,3.3,2.51,4.38,4.35,1.08,1.84,1.62,3.9,1.62,6.18v20.94h-5.64v-19.14c0-2.64-.69-4.72-2.07-6.24-1.38-1.52-3.17-2.28-5.37-2.28s-4.06.77-5.46,2.31c-1.4,1.54-2.1,3.61-2.1,6.21v19.14h-5.64v-19.14c0-2.64-.68-4.72-2.04-6.24-1.36-1.52-3.16-2.28-5.4-2.28s-4.01.77-5.43,2.31c-1.42,1.54-2.13,3.61-2.13,6.21v19.14h-5.58V13.08Z"/>
      <path class="cls-1" d="M109.02,43.59c-2-1.7-3-3.91-3-6.63s.87-4.85,2.61-6.63c1.74-1.78,4.39-2.97,7.95-3.57l11.04-1.8v-1.5c0-1.76-.66-3.19-1.98-4.29-1.32-1.1-3.02-1.65-5.1-1.65-1.84,0-3.47.47-4.89,1.41-1.42.94-2.47,2.19-3.15,3.75l-4.86-2.52c.92-2.24,2.6-4.1,5.04-5.58,2.44-1.48,5.1-2.22,7.98-2.22,2.44,0,4.61.47,6.51,1.41,1.9.94,3.38,2.25,4.44,3.93,1.06,1.68,1.59,3.6,1.59,5.76v21.96h-5.46v-4.2c-1.16,1.52-2.69,2.72-4.59,3.6-1.9.88-4.01,1.32-6.33,1.32-3.2,0-5.8-.85-7.8-2.55ZM113.49,40.08c1.06.88,2.39,1.32,3.99,1.32,1.96,0,3.71-.43,5.25-1.29,1.54-.86,2.74-2.03,3.6-3.51.86-1.48,1.29-3.12,1.29-4.92v-2.04l-9.78,1.62c-3.96.68-5.94,2.52-5.94,5.52,0,1.32.53,2.42,1.59,3.3Z"/>
      <path class="cls-2" d="M151.5,44.73c-1.96-.94-3.56-2.27-4.8-3.99v4.68h-5.46V0h5.58v17.46c1.28-1.6,2.89-2.85,4.83-3.75,1.94-.9,4.07-1.35,6.39-1.35,3,0,5.72.74,8.16,2.22,2.44,1.48,4.36,3.51,5.76,6.09,1.4,2.58,2.1,5.45,2.1,8.61s-.7,6.02-2.1,8.58c-1.4,2.56-3.32,4.58-5.76,6.06-2.44,1.48-5.18,2.22-8.22,2.22-2.36,0-4.52-.47-6.48-1.41ZM148.23,35.13c.94,1.74,2.23,3.11,3.87,4.11,1.64,1,3.46,1.5,5.46,1.5s3.81-.5,5.43-1.5c1.62-1,2.88-2.37,3.78-4.11.9-1.74,1.35-3.69,1.35-5.85s-.46-4.12-1.38-5.88c-.92-1.76-2.18-3.14-3.78-4.14-1.6-1-3.4-1.5-5.4-1.5s-3.82.5-5.46,1.5c-1.64,1-2.93,2.38-3.87,4.14-.94,1.76-1.41,3.72-1.41,5.88s.47,4.11,1.41,5.85Z"/>
      <path class="cls-2" d="M187.71,43.95c-2.54-1.46-4.55-3.48-6.03-6.06-1.48-2.58-2.22-5.47-2.22-8.67s.73-6.03,2.19-8.61c1.46-2.58,3.46-4.6,6-6.06,2.54-1.46,5.37-2.19,8.49-2.19s5.89.73,8.43,2.19c2.54,1.46,4.54,3.47,6,6.03,1.46,2.56,2.19,5.44,2.19,8.64s-.74,6.14-2.22,8.7c-1.48,2.56-3.49,4.57-6.03,6.03-2.54,1.46-5.33,2.19-8.37,2.19s-5.89-.73-8.43-2.19ZM186.75,35.1c.94,1.76,2.24,3.14,3.9,4.14,1.66,1,3.49,1.5,5.49,1.5s3.76-.5,5.4-1.5c1.64-1,2.93-2.38,3.87-4.14.94-1.76,1.41-3.72,1.41-5.88s-.47-4.11-1.41-5.85c-.94-1.74-2.23-3.11-3.87-4.11-1.64-1-3.44-1.5-5.4-1.5s-3.83.5-5.49,1.5c-1.66,1-2.96,2.37-3.9,4.11-.94,1.74-1.41,3.69-1.41,5.85s.47,4.12,1.41,5.88Z"/>
      <path class="cls-2" d="M225.9,29.22l-11.28-16.14h6.72l7.92,11.52,7.86-11.52h6.78l-11.28,16.14,11.22,16.2h-6.72l-7.86-11.58-7.86,11.58h-6.84l11.34-16.2Z"/>
    </g>
  </g>
</svg>
