<?xml version="1.0" encoding="UTF-8"?>
<svg id="Ebene_2" data-name="Ebene 2" xmlns="http://www.w3.org/2000/svg" viewBox="0 0 395.04 57.42">
  <defs>
    <style>
      .cls-1 {
        fill: #333;
      }

      .cls-2 {
        fill: #089488;
      }
    </style>
  </defs>
  <g id="Ebene_1-2" data-name="Ebene 1">
    <g>
      <path class="cls-1" d="M0,13.08h5.46v4.5c1.28-1.64,2.89-2.92,4.83-3.84,1.94-.92,4.11-1.38,6.51-1.38,3,0,5.72.74,8.16,2.22,2.44,1.48,4.36,3.51,5.76,6.09,1.4,2.58,2.1,5.45,2.1,8.61s-.7,6.02-2.1,8.58c-1.4,2.56-3.32,4.58-5.76,6.06-2.44,1.48-5.18,2.22-8.22,2.22-2.32,0-4.45-.45-6.39-1.35s-3.53-2.19-4.77-3.87v16.5H0V13.08ZM6.99,35.13c.94,1.74,2.23,3.11,3.87,4.11,1.64,1,3.46,1.5,5.46,1.5s3.81-.5,5.43-1.5c1.62-1,2.88-2.37,3.78-4.11.9-1.74,1.35-3.69,1.35-5.85s-.46-4.12-1.38-5.88c-.92-1.76-2.18-3.14-3.78-4.14-1.6-1-3.4-1.5-5.4-1.5s-3.82.5-5.46,1.5c-1.64,1-2.93,2.38-3.87,4.14-.94,1.76-1.41,3.72-1.41,5.88s.47,4.11,1.41,5.85Z"/>
      <path class="cls-1" d="M39.84,1.92c.64-.64,1.48-.96,2.52-.96s1.88.32,2.52.96c.64.64.96,1.48.96,2.52s-.32,1.88-.96,2.52c-.64.64-1.48.96-2.52.96s-1.88-.32-2.52-.96c-.64-.64-.96-1.48-.96-2.52s.32-1.88.96-2.52ZM39.54,18.42h5.58v27h-5.58v-27Z"/>
      <path class="cls-1" d="M53.16,13.08h5.46v4.02c.92-1.52,2.17-2.69,3.75-3.51,1.58-.82,3.33-1.23,5.25-1.23,2.2,0,4.21.53,6.03,1.59,1.82,1.06,3.21,2.49,4.17,4.29,1.04-1.88,2.45-3.33,4.23-4.35,1.78-1.02,3.75-1.53,5.91-1.53s4.22.53,6.06,1.59c1.84,1.06,3.3,2.51,4.38,4.35,1.08,1.84,1.62,3.9,1.62,6.18v20.94h-5.64v-19.14c0-2.64-.69-4.72-2.07-6.24-1.38-1.52-3.17-2.28-5.37-2.28s-4.06.77-5.46,2.31c-1.4,1.54-2.1,3.61-2.1,6.21v19.14h-5.64v-19.14c0-2.64-.68-4.72-2.04-6.24-1.36-1.52-3.16-2.28-5.4-2.28s-4.01.77-5.43,2.31c-1.42,1.54-2.13,3.61-2.13,6.21v19.14h-5.58V13.08Z"/>
      <path class="cls-1" d="M109.02,43.59c-2-1.7-3-3.91-3-6.63s.87-4.85,2.61-6.63c1.74-1.78,4.39-2.97,7.95-3.57l11.04-1.8v-1.5c0-1.76-.66-3.19-1.98-4.29-1.32-1.1-3.02-1.65-5.1-1.65-1.84,0-3.47.47-4.89,1.41-1.42.94-2.47,2.19-3.15,3.75l-4.86-2.52c.92-2.24,2.6-4.1,5.04-5.58,2.44-1.48,5.1-2.22,7.98-2.22,2.44,0,4.61.47,6.51,1.41,1.9.94,3.38,2.25,4.44,3.93,1.06,1.68,1.59,3.6,1.59,5.76v21.96h-5.46v-4.2c-1.16,1.52-2.69,2.72-4.59,3.6-1.9.88-4.01,1.32-6.33,1.32-3.2,0-5.8-.85-7.8-2.55ZM113.49,40.08c1.06.88,2.39,1.32,3.99,1.32,1.96,0,3.71-.43,5.25-1.29,1.54-.86,2.74-2.03,3.6-3.51.86-1.48,1.29-3.12,1.29-4.92v-2.04l-9.78,1.62c-3.96.68-5.94,2.52-5.94,5.52,0,1.32.53,2.42,1.59,3.3Z"/>
      <path class="cls-2" d="M152.7,43.59c-2-1.7-3-3.91-3-6.63s.87-4.85,2.61-6.63c1.74-1.78,4.39-2.97,7.95-3.57l11.04-1.8v-1.5c0-1.76-.66-3.19-1.98-4.29-1.32-1.1-3.02-1.65-5.1-1.65-1.84,0-3.47.47-4.89,1.41-1.42.94-2.47,2.19-3.15,3.75l-4.86-2.52c.92-2.24,2.6-4.1,5.04-5.58,2.44-1.48,5.1-2.22,7.98-2.22,2.44,0,4.61.47,6.51,1.41,1.9.94,3.38,2.25,4.44,3.93,1.06,1.68,1.59,3.6,1.59,5.76v21.96h-5.46v-4.2c-1.16,1.52-2.69,2.72-4.59,3.6-1.9.88-4.01,1.32-6.33,1.32-3.2,0-5.8-.85-7.8-2.55ZM157.17,40.08c1.06.88,2.39,1.32,3.99,1.32,1.96,0,3.71-.43,5.25-1.29,1.54-.86,2.74-2.03,3.6-3.51.86-1.48,1.29-3.12,1.29-4.92v-2.04l-9.78,1.62c-3.96.68-5.94,2.52-5.94,5.52,0,1.32.53,2.42,1.59,3.3Z"/>
      <path class="cls-2" d="M184.92,13.08h5.46v3.96c.96-1.52,2.24-2.68,3.84-3.48s3.4-1.2,5.4-1.2c2.28,0,4.34.53,6.18,1.59,1.84,1.06,3.29,2.51,4.35,4.35,1.06,1.84,1.59,3.9,1.59,6.18v20.94h-5.64v-19.14c0-2.64-.71-4.72-2.13-6.24-1.42-1.52-3.29-2.28-5.61-2.28s-4.21.77-5.67,2.31c-1.46,1.54-2.19,3.61-2.19,6.21v19.14h-5.58V13.08Z"/>
      <path class="cls-2" d="M220.8,43.59c-2-1.7-3-3.91-3-6.63s.87-4.85,2.61-6.63c1.74-1.78,4.39-2.97,7.95-3.57l11.04-1.8v-1.5c0-1.76-.66-3.19-1.98-4.29-1.32-1.1-3.02-1.65-5.1-1.65-1.84,0-3.47.47-4.89,1.41-1.42.94-2.47,2.19-3.15,3.75l-4.86-2.52c.92-2.24,2.6-4.1,5.04-5.58,2.44-1.48,5.1-2.22,7.98-2.22,2.44,0,4.61.47,6.51,1.41,1.9.94,3.38,2.25,4.44,3.93,1.06,1.68,1.59,3.6,1.59,5.76v21.96h-5.46v-4.2c-1.16,1.52-2.69,2.72-4.59,3.6-1.9.88-4.01,1.32-6.33,1.32-3.2,0-5.8-.85-7.8-2.55ZM225.27,40.08c1.06.88,2.39,1.32,3.99,1.32,1.96,0,3.71-.43,5.25-1.29,1.54-.86,2.74-2.03,3.6-3.51.86-1.48,1.29-3.12,1.29-4.92v-2.04l-9.78,1.62c-3.96.68-5.94,2.52-5.94,5.52,0,1.32.53,2.42,1.59,3.3Z"/>
      <path class="cls-2" d="M253.02,0h5.58v45.42h-5.58V0Z"/>
      <path class="cls-2" d="M275.82,45.36l-12.84-32.28h6.06l9.84,25.26,9.78-25.26h6.18l-17.88,44.34h-6.18l5.04-12.06Z"/>
      <path class="cls-2" d="M305.07,43.11c-1.7-1.78-2.55-4.33-2.55-7.65v-17.04h-5.88v-5.34h1.2c1.44,0,2.58-.43,3.42-1.29.84-.86,1.26-2.03,1.26-3.51v-2.64h5.58v7.44h7.26v5.34h-7.26v16.86c0,3.6,1.8,5.4,5.4,5.4.76,0,1.5-.06,2.22-.18v4.98c-.84.2-1.96.3-3.36.3-3.16,0-5.59-.89-7.29-2.67Z"/>
      <path class="cls-2" d="M322.68,1.92c.64-.64,1.48-.96,2.52-.96s1.88.32,2.52.96c.64.64.96,1.48.96,2.52s-.32,1.88-.96,2.52c-.64.64-1.48.96-2.52.96s-1.88-.32-2.52-.96c-.64-.64-.96-1.48-.96-2.52s.32-1.88.96-2.52ZM322.38,18.42h5.58v27h-5.58v-27Z"/>
      <path class="cls-2" d="M342.48,43.92c-2.52-1.48-4.48-3.51-5.88-6.09-1.4-2.58-2.1-5.45-2.1-8.61s.7-6.08,2.1-8.64c1.4-2.56,3.35-4.57,5.85-6.03,2.5-1.46,5.35-2.19,8.55-2.19s5.97.81,8.55,2.43,4.41,3.71,5.49,6.27l-5.04,2.4c-.76-1.72-1.95-3.1-3.57-4.14-1.62-1.04-3.43-1.56-5.43-1.56s-3.75.5-5.37,1.5c-1.62,1-2.89,2.37-3.81,4.11-.92,1.74-1.38,3.71-1.38,5.91s.47,4.11,1.41,5.85c.94,1.74,2.21,3.11,3.81,4.11,1.6,1,3.38,1.5,5.34,1.5s3.86-.52,5.46-1.56c1.6-1.04,2.78-2.46,3.54-4.26l5.04,2.52c-1.04,2.52-2.86,4.6-5.46,6.24-2.6,1.64-5.46,2.46-8.58,2.46s-6-.74-8.52-2.22Z"/>
      <path class="cls-2" d="M374.88,43.83c-2.4-1.54-4.12-3.63-5.16-6.27l4.5-2.28c.92,1.88,2.18,3.36,3.78,4.44,1.6,1.08,3.34,1.62,5.22,1.62s3.28-.42,4.44-1.26c1.16-.84,1.74-1.94,1.74-3.3s-.52-2.39-1.56-3.21c-1.04-.82-2.16-1.31-3.36-1.47l-4.86-.66c-2.88-.72-5.04-1.92-6.48-3.6-1.44-1.68-2.16-3.66-2.16-5.94,0-1.88.49-3.54,1.47-4.98.98-1.44,2.34-2.56,4.08-3.36,1.74-.8,3.67-1.2,5.79-1.2,2.8,0,5.31.7,7.53,2.1,2.22,1.4,3.81,3.34,4.77,5.82l-4.44,2.28c-.8-1.64-1.91-2.94-3.33-3.9-1.42-.96-2.99-1.44-4.71-1.44s-2.96.4-3.96,1.2c-1,.8-1.5,1.84-1.5,3.12s.47,2.37,1.41,3.15c.94.78,1.97,1.27,3.09,1.47l5.34.72c2.68.72,4.77,1.95,6.27,3.69,1.5,1.74,2.25,3.75,2.25,6.03,0,1.84-.5,3.48-1.5,4.92-1,1.44-2.4,2.57-4.2,3.39-1.8.82-3.86,1.23-6.18,1.23-3.12,0-5.88-.77-8.28-2.31Z"/>
    </g>
  </g>
</svg>